<?xml version="1.0" encoding="utf-8"?>
<!DOCTYPE svg PUBLIC "-//W3C//DTD SVG 1.1//EN" "http://www.w3.org/Graphics/SVG/1.1/DTD/svg11.dtd">
<svg version="1.1" xmlns="http://www.w3.org/2000/svg" xmlns:xlink="http://www.w3.org/1999/xlink">

  <symbol id="logo" viewBox="0 0 40 65">
    <path fill="#4CA9FF" d="M28.1,28.1c1,2.2,1.5,4.6,1.5,7.1c0,9.6-7.8,17.4-17.4,17.4c-3.1,0-6.1-0.8-8.6-2.3
	c2.7,6.1,8.8,10.3,15.9,10.3c9.6,0,17.4-7.8,17.4-17.4C36.9,36.8,33.3,31.1,28.1,28.1z"/>
  </symbol>
  <symbol id="logo-menu" viewBox="0 0 455 455">
    <rect y="312.5" width="455" height="30"/>
    <rect y="212.5" width="455" height="30"/>
    <rect y="112.5" width="455" height="30"/>
  </symbol>
  <symbol id="arrow" viewBox="0 0 129 129">
    <path d="m121.3,34.6c-1.6-1.6-4.2-1.6-5.8,0l-51,51.1-51.1-51.1c-1.6-1.6-4.2-1.6-5.8,0-1.6,1.6-1.6,4.2 0,5.8l53.9,53.9c0.8,0.8 1.8,1.2 2.9,1.2 1,0 2.1-0.4 2.9-1.2l53.9-53.9c1.7-1.6 1.7-4.2 0.1-5.8z"/>
  </symbol>
  <symbol id="">
  </symbol>
  <symbol id="">
  </symbol>
  <symbol id="">
  </symbol>
  <symbol id="">
  </symbol>


</svg>